<svg width="16" height="17" viewBox="0 0 16 17" fill="none" xmlns="http://www.w3.org/2000/svg">
<path d="M5.5 12.2474C4.91667 12.2474 4.42361 12.046 4.02083 11.6432C3.61806 11.2405 3.41667 10.7474 3.41667 10.1641C3.41667 9.58073 3.61806 9.08767 4.02083 8.6849C4.42361 8.28212 4.91667 8.08073 5.5 8.08073C6.08333 8.08073 6.57639 8.28212 6.97917 8.6849C7.38194 9.08767 7.58333 9.58073 7.58333 10.1641C7.58333 10.7474 7.38194 11.2405 6.97917 11.6432C6.57639 12.046 6.08333 12.2474 5.5 12.2474ZM2.16667 16.8307C1.70833 16.8307 1.31597 16.6675 0.989583 16.3411C0.663194 16.0148 0.5 15.6224 0.5 15.1641V3.4974C0.5 3.03906 0.663194 2.6467 0.989583 2.32031C1.31597 1.99392 1.70833 1.83073 2.16667 1.83073H3V0.164062H4.66667V1.83073H11.3333V0.164062H13V1.83073H13.8333C14.2917 1.83073 14.684 1.99392 15.0104 2.32031C15.3368 2.6467 15.5 3.03906 15.5 3.4974V15.1641C15.5 15.6224 15.3368 16.0148 15.0104 16.3411C14.684 16.6675 14.2917 16.8307 13.8333 16.8307H2.16667ZM2.16667 15.1641H13.8333V6.83073H2.16667V15.1641Z" fill="#667185"/>
</svg>
