<svg width="20" height="20" viewBox="0 0 20 20" fill="none" xmlns="http://www.w3.org/2000/svg">
<path d="M10.0013 18.3307C9.80686 18.3307 9.64019 18.2752 9.5013 18.1641C9.36241 18.0529 9.25825 17.9071 9.1888 17.7266C8.92491 16.9488 8.59158 16.2196 8.1888 15.5391C7.79991 14.8585 7.2513 14.0599 6.54297 13.1432C5.83464 12.2266 5.25825 11.3516 4.8138 10.5182C4.38325 9.6849 4.16797 8.67795 4.16797 7.49739C4.16797 5.87239 4.73047 4.4974 5.85547 3.37239C6.99436 2.23351 8.3763 1.66406 10.0013 1.66406C11.6263 1.66406 13.0013 2.23351 14.1263 3.37239C15.2652 4.4974 15.8346 5.87239 15.8346 7.49739C15.8346 8.76128 15.5916 9.81684 15.1055 10.6641C14.6332 11.4974 14.0846 12.3238 13.4596 13.1432C12.7096 14.1432 12.1402 14.9766 11.7513 15.6432C11.3763 16.296 11.0638 16.9905 10.8138 17.7266C10.7444 17.921 10.6332 18.0738 10.4805 18.1849C10.3416 18.2821 10.1819 18.3307 10.0013 18.3307ZM10.0013 15.3516C10.2374 14.8793 10.5013 14.4141 10.793 13.9557C11.0985 13.4974 11.543 12.8863 12.1263 12.1224C12.7235 11.3446 13.2096 10.6293 13.5846 9.97656C13.9735 9.30989 14.168 8.48351 14.168 7.49739C14.168 6.34462 13.7582 5.36545 12.9388 4.5599C12.1332 3.74045 11.1541 3.33073 10.0013 3.33073C8.84852 3.33073 7.86241 3.74045 7.04297 4.5599C6.23741 5.36545 5.83464 6.34462 5.83464 7.49739C5.83464 8.48351 6.02214 9.30989 6.39714 9.97656C6.78602 10.6293 7.27908 11.3446 7.8763 12.1224C8.45964 12.8863 8.89714 13.4974 9.1888 13.9557C9.49436 14.4141 9.76519 14.8793 10.0013 15.3516ZM10.0013 9.58073C10.5846 9.58073 11.0777 9.37934 11.4805 8.97656C11.8832 8.57378 12.0846 8.08073 12.0846 7.49739C12.0846 6.91406 11.8832 6.42101 11.4805 6.01823C11.0777 5.61545 10.5846 5.41406 10.0013 5.41406C9.41797 5.41406 8.92491 5.61545 8.52214 6.01823C8.11936 6.42101 7.91797 6.91406 7.91797 7.49739C7.91797 8.08073 8.11936 8.57378 8.52214 8.97656C8.92491 9.37934 9.41797 9.58073 10.0013 9.58073Z" fill="#667185"/>
</svg>
